<svg xmlns="http://www.w3.org/2000/svg" width="25" height="30"><path d="M7.027 24.995h-1.28c-1.744 0-3.392-.861-4.483-2.338-1.09-1.48-1.506-3.416-1.127-5.27l1.69-8.265C2.893 3.905 7.091.147 12.003.004a10.01 10.01 0 0 1 5.488 1.465C18.284.565 19.404 0 20.644 0c2.405 0 4.354 2.12 4.354 4.738 0 1.805-.929 3.374-2.295 4.173l2.086 8.16c.483 1.884.126 3.901-.962 5.454-1.085 1.556-2.778 2.47-4.574 2.47h-.963C17.746 27.905 15.392 30 12.658 30c-2.733 0-5.087-2.093-5.631-5.005Zm5.631 2.5c1.456-.007 2.75-1.007 3.236-2.5H9.423c.485 1.493 1.78 2.493 3.235 2.5Zm-.594-24.992c-3.86.11-7.154 3.061-7.993 7.16L2.38 17.93a4.007 4.007 0 0 0 .677 3.16c.656.886 1.644 1.405 2.69 1.405h13.506c1.076.003 2.094-.546 2.744-1.483.656-.932.87-2.142.578-3.27L20.46 9.47c-2.322-.104-4.173-2.182-4.173-4.73 0-.368.04-.728.112-1.072a7.867 7.867 0 0 0-4.335-1.164Z" fill="#566bfc" fill-rule="evenodd" data-name="Union 1"/></svg>