<svg xmlns="http://www.w3.org/2000/svg" width="82.662" height="64.277" viewBox="190 38.723 82.662 64.277"><g data-name="Group 58"><path d="m215.921 51.344-5.398 9.99a5.88 5.88 0 0 0-3.093-.778c-2.002.041-3.587.747-4.752 2.117-1.166 1.37-1.749 3.159-1.749 5.367V79.08l-2.887 5.344H190V38.907h10.921v17.732a11.778 11.778 0 0 1 4.572-4.356 13.506 13.506 0 0 1 6.418-1.474c.397 0 .778.013 1.164.042.964.062 1.918.228 2.846.493Z" fill="#566bfc" fill-rule="evenodd" data-name="Path 39"/><path d="M200.93 79.086v5.344h-2.888l2.887-5.344Z" fill="#3cff66" fill-rule="evenodd" data-name="Path 40"/><path d="m230.848 91.642-5.785 10.717a16.603 16.603 0 0 1-11.66-12.62l-.312-5.296-.016-.259V66.65c0-1.88-.5-3.363-1.502-4.45a4.856 4.856 0 0 0-1.053-.856l5.401-10 .296.093c1.713.54 3.26 1.506 4.498 2.807 2.188 2.293 3.282 5.381 3.282 9.264v22.463a5.78 5.78 0 0 0 2.88 4.987h.02a5.233 5.233 0 0 0 2.737.765h.26c.32.004.64-.023.954-.08Z" fill="#3cff66" fill-rule="evenodd" data-name="Path 41"/><path d="m252.679 51.263-17.16 31.746V38.723h10.92V53.51a17.217 17.217 0 0 1 6.24-2.247Z" fill="#3cff66" fill-rule="evenodd" data-name="Path 42"/><path d="M255.322 51.063c-.884.001-1.768.068-2.643.2l-17.16 31.746v2.962a5.767 5.767 0 0 1-2.88 4.987h-.016a5.174 5.174 0 0 1-1.767.674l-5.793 10.727c1.487.427 3.025.642 4.571.641h.26a16.533 16.533 0 0 0 16.559-16.538v-3.194a17.327 17.327 0 1 0 8.877-32.205Zm.496 26.646a9.292 9.292 0 0 1-9.293-9.294 9.292 9.292 0 0 1 9.294-9.291 9.292 9.292 0 0 1 9.291 9.293c0 5.131-4.16 9.291-9.291 9.292Z" fill="#ff1662" fill-rule="evenodd" data-name="Path 43"/></g></svg>