<svg xmlns="http://www.w3.org/2000/svg" width="188.284" height="146.409" viewBox="148 354.24 188.284 146.409"><g data-name="Group 58"><path d="m207.043 382.987-12.297 22.756a13.396 13.396 0 0 0-7.043-1.773c-4.562.095-8.17 1.702-10.825 4.822-2.656 3.12-3.983 7.195-3.983 12.226v25.143l-6.577 12.173H148V354.659h24.877v40.389a26.827 26.827 0 0 1 10.412-9.922 30.763 30.763 0 0 1 14.619-3.356c.904 0 1.773.03 2.653.095 2.195.142 4.368.519 6.482 1.122Z" fill="#566bfc" fill-rule="evenodd" data-name="Path 39"/><path d="M172.895 446.179v12.172h-6.577l6.577-12.172Z" fill="#3cff66" fill-rule="evenodd" data-name="Path 40"/><path d="m241.044 474.779-13.177 24.41a37.818 37.818 0 0 1-26.561-28.748l-.71-12.06-.035-.591v-39.94c0-4.281-1.14-7.66-3.421-10.133a11.057 11.057 0 0 0-1.809-1.572 7.716 7.716 0 0 0-.59-.378l12.302-22.78.674.213a24.18 24.18 0 0 1 10.246 6.394c4.983 5.223 7.475 12.257 7.475 21.1v51.167a13.165 13.165 0 0 0 6.56 11.358h.046a11.919 11.919 0 0 0 6.234 1.743h.591c.73.009 1.458-.053 2.175-.183Z" fill="#3cff66" fill-rule="evenodd" data-name="Path 41"/><path d="m290.769 382.804-39.089 72.31V354.24h24.877v33.681a39.218 39.218 0 0 1 14.212-5.117Z" fill="#3cff66" fill-rule="evenodd" data-name="Path 42"/><path d="M296.79 382.35a40.453 40.453 0 0 0-6.021.454l-39.089 72.31v6.747a13.136 13.136 0 0 1-6.559 11.358h-.035a11.784 11.784 0 0 1-4.024 1.536l-13.195 24.434a37.624 37.624 0 0 0 10.411 1.46h.591a37.659 37.659 0 0 0 37.718-37.67v-7.275a39.467 39.467 0 1 0 20.22-73.355Zm1.128 60.691c-11.69 0-21.167-9.478-21.166-21.168 0-11.689 9.478-21.165 21.168-21.164 11.689 0 21.166 9.477 21.165 21.168 0 11.687-9.476 21.163-21.165 21.164Z" fill="#ff1662" fill-rule="evenodd" data-name="Path 43"/></g></svg>