<svg xmlns="http://www.w3.org/2000/svg" width="101.948" height="79.274" viewBox="150.026 46 101.948 79.274"><g data-name="Group 58"><path d="m181.995 61.566-6.658 12.32a7.253 7.253 0 0 0-3.813-.959c-2.47.051-4.424.921-5.862 2.61-1.438 1.69-2.156 3.897-2.156 6.62v13.615l-3.561 6.59h-9.919V46.227h13.47v21.869a14.526 14.526 0 0 1 5.637-5.372 16.657 16.657 0 0 1 7.916-1.817c.49 0 .96.016 1.437.05 1.188.078 2.364.282 3.51.609Z" fill="#566bfc" fill-rule="evenodd" data-name="Path 39"/><path d="M163.506 95.781v6.591h-3.561l3.56-6.59Z" fill="#3cff66" fill-rule="evenodd" data-name="Path 40"/><path d="m200.405 111.267-7.134 13.217a20.477 20.477 0 0 1-14.382-15.566l-.384-6.53-.02-.32V80.443c0-2.319-.617-4.148-1.852-5.487a5.99 5.99 0 0 0-1.299-1.056l6.661-12.334.365.115a13.092 13.092 0 0 1 5.548 3.462c2.698 2.828 4.048 6.636 4.048 11.425v27.705a7.128 7.128 0 0 0 3.551 6.149h.026a6.454 6.454 0 0 0 3.375.944h.32c.395.005.79-.029 1.177-.1Z" fill="#3cff66" fill-rule="evenodd" data-name="Path 41"/><path d="m227.33 61.466-21.165 39.153V46h13.47v18.237a21.234 21.234 0 0 1 7.694-2.77Z" fill="#3cff66" fill-rule="evenodd" data-name="Path 42"/><path d="M230.59 61.22c-1.092 0-2.182.083-3.26.246l-21.165 39.153v3.654a7.113 7.113 0 0 1-3.552 6.149h-.02a6.38 6.38 0 0 1-2.178.832l-7.144 13.23c1.832.526 3.73.792 5.637.79h.32a20.39 20.39 0 0 0 20.422-20.397v-3.938A21.37 21.37 0 1 0 230.6 61.22Zm.61 32.862c-6.33 0-11.46-5.132-11.46-11.462 0-6.328 5.132-11.46 11.462-11.46 6.329 0 11.46 5.133 11.46 11.463 0 6.328-5.131 11.459-11.46 11.46Z" fill="#ff1662" fill-rule="evenodd" data-name="Path 43"/></g></svg>