<svg xmlns="http://www.w3.org/2000/svg" width="124" height="124" viewBox="894 430.95 124 124"><g data-name="Group 226"><path d="M894 492.9a62 62 0 1 1 0 .1z" fill="#f2f2f2" fill-rule="evenodd" data-name="Ellipse 13"/><g data-name="picture"><path d="M965.381 474.807h-20.317a7.265 7.265 0 0 0-7.257 7.257v20.317a7.265 7.265 0 0 0 7.257 7.257h20.317a7.265 7.265 0 0 0 7.257-7.257v-20.317a7.265 7.265 0 0 0-7.257-7.257Zm-20.317 2.903h20.317a4.354 4.354 0 0 1 4.354 4.354v20.317a4.283 4.283 0 0 1-.435 1.865l-13.298-13.298a7.256 7.256 0 0 0-10.263 0l-5.03 5.028v-13.912a4.354 4.354 0 0 1 4.355-4.354Zm0 29.025a4.354 4.354 0 0 1-4.354-4.354v-2.301l7.08-7.08a4.354 4.354 0 0 1 6.158 0l13.298 13.3a4.283 4.283 0 0 1-1.865.435h-20.317Z" fill="#dadada" fill-rule="evenodd" data-name="Path 21"/><path d="M961.028 490.046a5.08 5.08 0 1 0 0-10.16 5.08 5.08 0 0 0 0 10.16Zm0-7.257a2.177 2.177 0 1 1 0 4.354 2.177 2.177 0 0 1 0-4.354Z" fill="#dadada" fill-rule="evenodd" data-name="Path 22"/></g></g></svg>